<svg xmlns="http://www.w3.org/2000/svg" viewBox="0 0 100 120" width="100" height="120">
  <defs>
    <linearGradient id="bodyGrad" x1="0%" y1="0%" x2="0%" y2="100%">
      <stop offset="0%" style="stop-color:#6366f1"/>
      <stop offset="100%" style="stop-color:#4f46e5"/>
    </linearGradient>
    <linearGradient id="headGrad" x1="0%" y1="0%" x2="0%" y2="100%">
      <stop offset="0%" style="stop-color:#818cf8"/>
      <stop offset="100%" style="stop-color:#6366f1"/>
    </linearGradient>
    <linearGradient id="capeGrad" x1="0%" y1="0%" x2="0%" y2="100%">
      <stop offset="0%" style="stop-color:#a78bfa"/>
      <stop offset="100%" style="stop-color:#7c3aed"/>
    </linearGradient>
  </defs>

  <!-- Cape -->
  <path d="M25 45 L50 40 L75 45 L85 110 L50 95 L15 110 Z" fill="url(#capeGrad)"/>

  <!-- Body -->
  <rect x="32" y="50" width="36" height="50" rx="8" fill="url(#bodyGrad)"/>

  <!-- Code symbol on body -->
  <text x="50" y="82" font-family="monospace" font-size="14" font-weight="bold" fill="#22d3ee" text-anchor="middle">&lt;/&gt;</text>

  <!-- Head -->
  <circle cx="50" cy="30" r="22" fill="url(#headGrad)"/>

  <!-- Mask -->
  <rect x="35" y="24" width="30" height="12" rx="4" fill="#0f0f23"/>

  <!-- Eyes (glowing) -->
  <rect x="38" y="27" width="8" height="6" rx="2" fill="#22d3ee"/>
  <rect x="54" y="27" width="8" height="6" rx="2" fill="#22d3ee"/>

  <!-- Arms -->
  <rect x="20" y="55" width="12" height="30" rx="4" fill="url(#bodyGrad)" transform="rotate(15, 26, 55)"/>
  <rect x="68" y="55" width="12" height="30" rx="4" fill="url(#bodyGrad)" transform="rotate(-15, 74, 55)"/>
</svg>
